<svg preserveAspectRatio="none" width="100%" height="100%" overflow="visible" style="display: block;" viewBox="0 0 1277.41 316.671" fill="none" xmlns="http://www.w3.org/2000/svg">
<g id="BlockPe" opacity="0.6" filter="url(#filter0_f_0_4)" style="mix-blend-mode:overlay">
<path d="M37.7897 273.156L37.7897 50.5122L162.47 50.5122C204.773 50.5122 231.172 75.6392 231.172 109.354C231.172 136.707 215.269 155.155 188.87 158.654V159.608C220.04 163.425 238.806 184.099 238.806 214.951C238.806 251.21 210.498 273.156 164.061 273.156H37.7897ZM147.522 226.401C161.834 226.401 171.058 217.495 171.058 204.137C171.058 191.096 161.198 182.508 145.931 182.508L104.901 182.508V226.401L147.522 226.401ZM146.249 137.343C159.608 137.343 168.196 129.392 168.196 117.305C168.196 105.219 159.608 97.2675 146.249 97.2675H104.901V137.343H146.249Z" fill="var(--fill-0, #F6F3EA)"/>
<path d="M248.025 273.156L248.025 37.7897L311.001 37.7897L311.001 273.156L248.025 273.156Z" fill="var(--fill-0, #F6F3EA)"/>
<path d="M410.885 278.882C357.451 278.882 320.873 241.986 320.873 188.552C320.873 135.117 357.451 98.5398 410.885 98.5398C464.32 98.5398 500.897 135.117 500.897 188.552C500.897 241.986 464.32 278.882 410.885 278.882ZM410.885 233.08C428.061 233.08 437.285 217.495 437.285 188.552C437.285 159.926 428.061 144.341 410.885 144.341C394.028 144.341 384.804 159.926 384.804 188.552C384.804 217.495 394.028 233.08 410.885 233.08Z" fill="var(--fill-0, #F6F3EA)"/>
<path d="M596.021 278.882C542.586 278.882 506.009 241.668 506.009 187.597C506.009 134.799 542.586 98.5398 595.384 98.5398C641.822 98.5398 674.9 127.802 679.671 173.285L619.557 173.285C618.285 155.791 609.379 144.341 596.975 144.341C579.481 144.341 569.939 159.608 569.939 187.597C569.939 217.177 579.163 233.08 596.657 233.08C609.379 233.08 618.285 221.63 619.557 204.137L679.671 204.137C674.9 249.62 642.14 278.882 596.021 278.882Z" fill="var(--fill-0, #F6F3EA)"/>
<path d="M688.815 273.156V37.7897L751.792 37.7897V161.834L801.092 104.583H873.292L806.181 170.74L875.837 273.156H803.954L764.833 211.134L751.792 224.175V273.156H688.815Z" fill="var(--fill-0, #F6F3EA)"/>
<path d="M874.631 273.156V50.5122L992.633 50.5122C1037.16 50.5122 1067.7 81.0463 1067.7 125.575C1067.7 170.104 1037.16 200.638 992.633 200.638H941.743V273.156H874.631ZM974.821 150.066C992.633 150.066 1001.54 140.842 1001.54 125.893C1001.54 111.262 992.633 102.357 974.821 102.357L941.743 102.357V150.066L974.821 150.066Z" fill="var(--fill-0, #F6F3EA)"/>
<path d="M1154.55 278.882C1098.89 278.882 1063.59 245.167 1063.59 189.506C1063.59 136.707 1100.8 98.5398 1152.65 98.5398C1209.9 98.5398 1242.02 138.616 1239.48 200.002L1123.07 200.002C1125.93 221.948 1137.38 234.353 1155.19 234.353C1167.6 234.353 1176.82 227.991 1180.32 216.541L1236.61 216.541C1227.07 255.345 1195.27 278.882 1154.55 278.882ZM1124.97 166.287H1180.95C1177.45 150.066 1168.87 141.16 1154.24 141.16C1139.92 141.16 1129.43 150.384 1124.97 166.287Z" fill="var(--fill-0, #F6F3EA)"/>
</g>
<defs>
<filter id="filter0_f_0_4" x="0" y="0" width="1277.41" height="316.671" filterUnits="userSpaceOnUse" color-interpolation-filters="sRGB">
<feFlood flood-opacity="0" result="BackgroundImageFix"/>
<feBlend mode="normal" in="SourceGraphic" in2="BackgroundImageFix" result="shape"/>
<feGaussianBlur stdDeviation="18.8948" result="effect1_foregroundBlur_0_4"/>
</filter>
</defs>
</svg>
