<svg width="1202" height="242" viewBox="0 0 1202 242" fill="none" xmlns="http://www.w3.org/2000/svg">
<path d="M0 235.367L0 12.7225L124.681 12.7225C166.983 12.7225 193.382 37.8495 193.382 71.5642C193.382 98.9177 177.479 117.365 151.08 120.864V121.818C182.25 125.635 201.016 146.309 201.016 177.161C201.016 213.42 172.708 235.367 126.271 235.367L0 235.367ZM109.732 188.611C124.045 188.611 133.268 179.706 133.268 166.347C133.268 153.306 123.409 144.719 108.142 144.719L67.1113 144.719V188.611L109.732 188.611ZM108.46 99.5538C121.818 99.5538 130.406 91.6022 130.406 79.5158C130.406 67.4294 121.818 59.4778 108.46 59.4778H67.1113V99.5538H108.46Z" fill="#F6F3EA"/>
<path d="M210.235 235.367L210.235 0L273.211 0L273.211 235.367L210.235 235.367Z" fill="#F6F3EA"/>
<path d="M373.096 241.092C319.661 241.092 283.084 204.197 283.084 150.762C283.084 97.3273 319.661 60.7501 373.096 60.7501C426.53 60.7501 463.108 97.3273 463.108 150.762C463.108 204.197 426.53 241.092 373.096 241.092ZM373.096 195.291C390.271 195.291 399.495 179.706 399.495 150.762C399.495 122.136 390.271 106.551 373.096 106.551C356.238 106.551 347.014 122.136 347.014 150.762C347.014 179.706 356.238 195.291 373.096 195.291Z" fill="#F6F3EA"/>
<path d="M558.231 241.092C504.796 241.092 468.219 203.879 468.219 149.808C468.219 97.0093 504.796 60.7501 557.595 60.7501C604.032 60.7501 637.111 90.0119 641.881 135.495L581.767 135.495C580.495 118.001 571.589 106.551 559.185 106.551C541.692 106.551 532.15 121.818 532.15 149.808C532.15 179.388 541.373 195.291 558.867 195.291C571.589 195.291 580.495 183.841 581.767 166.347L641.881 166.347C637.111 211.83 604.35 241.092 558.231 241.092Z" fill="#F6F3EA"/>
<path d="M651.026 235.367V0L714.002 0V124.045L763.302 66.7933H835.502L768.391 132.95L838.047 235.367L766.165 235.367L727.043 173.344L714.002 186.385V235.367H651.026Z" fill="#F6F3EA"/>
<path d="M836.842 235.367V12.7225L954.843 12.7225C999.372 12.7225 1029.91 43.2566 1029.91 87.7854C1029.91 132.314 999.372 162.848 954.843 162.848H903.953V235.367H836.842ZM937.032 112.276C954.843 112.276 963.749 103.052 963.749 88.1035C963.749 73.4726 954.843 64.5668 937.032 64.5668L903.953 64.5668V112.276L937.032 112.276Z" fill="#F6F3EA"/>
<path d="M1116.76 241.092C1061.1 241.092 1025.8 207.377 1025.8 151.716C1025.8 98.9176 1063.01 60.7501 1114.86 60.7501C1172.11 60.7501 1204.23 100.826 1201.69 162.212L1085.28 162.212C1088.14 184.159 1099.59 196.563 1117.4 196.563C1129.81 196.563 1139.03 190.202 1142.53 178.752L1198.83 178.752C1189.28 217.555 1157.48 241.092 1116.76 241.092ZM1087.18 128.498H1143.16C1139.67 112.276 1131.08 103.371 1116.45 103.371C1102.13 103.371 1091.64 112.594 1087.18 128.498Z" fill="#F6F3EA"/>
</svg>
