<svg width="112" height="112" viewBox="0 0 112 112" fill="none" xmlns="http://www.w3.org/2000/svg">
<path d="M0.336365 0.336365H37.3366V37.3366H0.336365V0.336365Z" fill="#F6F3EA"/>
<path d="M0.336365 0.336365V-8.04663e-07H-8.04663e-07V0.336365H0.336365ZM0.336365 37.3366H-8.04663e-07V37.6729H0.336365V37.3366ZM0.336365 0.336365H-8.04663e-07V0.997083H0.336365H0.67273V0.336365H0.336365ZM0.336365 2.31852H-8.04663e-07V3.63995H0.336365H0.67273V2.31852H0.336365ZM0.336365 4.96139H-8.04663e-07V6.28283H0.336365H0.67273V4.96139H0.336365ZM0.336365 7.60426H-8.04663e-07V8.9257H0.336365H0.67273V7.60426H0.336365ZM0.336365 10.2471H-8.04663e-07V11.5686H0.336365H0.67273V10.2471H0.336365ZM0.336365 12.89H-8.04663e-07V14.2114H0.336365H0.67273V12.89H0.336365ZM0.336365 15.5329H-8.04663e-07V16.8543H0.336365H0.67273V15.5329H0.336365ZM0.336365 18.1757H-8.04663e-07V19.4972H0.336365H0.67273V18.1757H0.336365ZM0.336365 20.8186H-8.04663e-07V22.1401H0.336365H0.67273V20.8186H0.336365ZM0.336365 23.4615H-8.04663e-07V24.7829H0.336365H0.67273V23.4615H0.336365ZM0.336365 26.1044H-8.04663e-07V27.4258H0.336365H0.67273V26.1044H0.336365ZM0.336365 28.7472H-8.04663e-07V30.0687H0.336365H0.67273V28.7472H0.336365ZM0.336365 31.3901H-8.04663e-07V32.7115H0.336365H0.67273V31.3901H0.336365ZM0.336365 34.033H-8.04663e-07V35.3544H0.336365H0.67273V34.033H0.336365ZM0.336365 36.6758H-8.04663e-07V37.3366H0.336365H0.67273V36.6758H0.336365ZM0.336365 37.3366V37.6729H0.997083V37.3366V37.0002H0.336365V37.3366ZM2.31852 37.3366V37.6729H3.63995V37.3366V37.0002H2.31852V37.3366ZM4.96139 37.3366V37.6729H6.28283V37.3366V37.0002H4.96139V37.3366ZM7.60426 37.3366V37.6729H8.9257V37.3366V37.0002H7.60426V37.3366ZM10.2471 37.3366V37.6729H11.5686V37.3366V37.0002H10.2471V37.3366ZM12.89 37.3366V37.6729H14.2114V37.3366V37.0002H12.89V37.3366ZM15.5329 37.3366V37.6729H16.8543V37.3366V37.0002H15.5329V37.3366ZM18.1757 37.3366V37.6729H19.4972V37.3366V37.0002H18.1757V37.3366ZM20.8186 37.3366V37.6729H22.1401V37.3366V37.0002H20.8186V37.3366ZM23.4615 37.3366V37.6729H24.7829V37.3366V37.0002H23.4615V37.3366ZM26.1044 37.3366V37.6729H27.4258V37.3366V37.0002H26.1044V37.3366ZM28.7472 37.3366V37.6729H30.0687V37.3366V37.0002H28.7472V37.3366ZM31.3901 37.3366V37.6729H32.7115V37.3366V37.0002H31.3901V37.3366ZM34.033 37.3366V37.6729H35.3544V37.3366V37.0002H34.033V37.3366ZM36.6758 37.3366V37.6729H37.3366V37.3366V37.0002H36.6758V37.3366ZM37.3366 0.336365V-8.04663e-07H36.6758V0.336365V0.67273H37.3366V0.336365ZM35.3544 0.336365V-8.04663e-07H34.033V0.336365V0.67273H35.3544V0.336365ZM32.7115 0.336365V-8.04663e-07H31.3901V0.336365V0.67273H32.7115V0.336365ZM30.0687 0.336365V-8.04663e-07H28.7472V0.336365V0.67273H30.0687V0.336365ZM27.4258 0.336365V-8.04663e-07H26.1044V0.336365V0.67273H27.4258V0.336365ZM24.7829 0.336365V-8.04663e-07H23.4615V0.336365V0.67273H24.7829V0.336365ZM22.1401 0.336365V-8.04663e-07H20.8186V0.336365V0.67273H22.1401V0.336365ZM19.4972 0.336365V-8.04663e-07H18.1757V0.336365V0.67273H19.4972V0.336365ZM16.8543 0.336365V-8.04663e-07H15.5329V0.336365V0.67273H16.8543V0.336365ZM14.2114 0.336365V-8.04663e-07H12.89V0.336365V0.67273H14.2114V0.336365ZM11.5686 0.336365V-8.04663e-07H10.2471V0.336365V0.67273H11.5686V0.336365ZM8.9257 0.336365V-8.04663e-07H7.60426V0.336365V0.67273H8.9257V0.336365ZM6.28282 0.336365V-8.04663e-07H4.96139V0.336365V0.67273H6.28282V0.336365ZM3.63995 0.336365V-8.04663e-07H2.31852V0.336365V0.67273H3.63995V0.336365ZM0.997085 0.336365V-8.04663e-07H0.336365V0.336365V0.67273H0.997085V0.336365Z" fill="black" fill-opacity="0.05"/>
<path d="M0.336365 37.3363H37.3366V74.3365H0.336365V37.3363Z" fill="#F6F3EA" stroke="black" stroke-opacity="0.05" stroke-width="0.672731" stroke-dasharray="1.35 1.35"/>
<path d="M0.336365 74.3364H37.3366V111.337H0.336365V74.3364Z" fill="#F6F3EA"/>
<path d="M0.336365 74.3364V74.0001H-8.04663e-07V74.3364H0.336365ZM37.3366 74.3364H37.6729V74.0001H37.3366V74.3364ZM37.3366 111.337V111.673H37.6729V111.337H37.3366ZM0.336365 111.337H-8.04663e-07V111.673H0.336365V111.337ZM0.336365 74.3364H-8.04663e-07V74.9972H0.336365H0.67273V74.3364H0.336365ZM0.336365 76.3186H-8.04663e-07V77.64H0.336365H0.67273V76.3186H0.336365ZM0.336365 78.9615H-8.04663e-07V80.2829H0.336365H0.67273V78.9615H0.336365ZM0.336365 81.6043H-8.04663e-07V82.9258H0.336365H0.67273V81.6043H0.336365ZM0.336365 84.2472H-8.04663e-07V85.5686H0.336365H0.67273V84.2472H0.336365ZM0.336365 86.8901H-8.04663e-07V88.2115H0.336365H0.67273V86.8901H0.336365ZM0.336365 89.5329H-8.04663e-07V90.8544H0.336365H0.67273V89.5329H0.336365ZM0.336365 92.1758H-8.04663e-07V93.4973H0.336365H0.67273V92.1758H0.336365ZM0.336365 94.8187H-8.04663e-07V96.1401H0.336365H0.67273V94.8187H0.336365ZM0.336365 97.4616H-8.04663e-07V98.783H0.336365H0.67273V97.4616H0.336365ZM0.336365 100.104H-8.04663e-07V101.426H0.336365H0.67273V100.104H0.336365ZM0.336365 102.747H-8.04663e-07V104.069H0.336365H0.67273V102.747H0.336365ZM0.336365 105.39H-8.04663e-07V106.712H0.336365H0.67273V105.39H0.336365ZM0.336365 108.033H-8.04663e-07V109.354H0.336365H0.67273V108.033H0.336365ZM0.336365 110.676H-8.04663e-07V111.337H0.336365H0.67273V110.676H0.336365ZM0.336365 111.337V111.673H0.997083V111.337V111H0.336365V111.337ZM2.31852 111.337V111.673H3.63995V111.337V111H2.31852V111.337ZM4.96139 111.337V111.673H6.28283V111.337V111H4.96139V111.337ZM7.60426 111.337V111.673H8.9257V111.337V111H7.60426V111.337ZM10.2471 111.337V111.673H11.5686V111.337V111H10.2471V111.337ZM12.89 111.337V111.673H14.2114V111.337V111H12.89V111.337ZM15.5329 111.337V111.673H16.8543V111.337V111H15.5329V111.337ZM18.1757 111.337V111.673H19.4972V111.337V111H18.1757V111.337ZM20.8186 111.337V111.673H22.1401V111.337V111H20.8186V111.337ZM23.4615 111.337V111.673H24.7829V111.337V111H23.4615V111.337ZM26.1044 111.337V111.673H27.4258V111.337V111H26.1044V111.337ZM28.7472 111.337V111.673H30.0687V111.337V111H28.7472V111.337ZM31.3901 111.337V111.673H32.7115V111.337V111H31.3901V111.337ZM34.033 111.337V111.673H35.3544V111.337V111H34.033V111.337ZM36.6758 111.337V111.673H37.3366V111.337V111H36.6758V111.337ZM37.3366 111.337H37.6729V110.676H37.3366H37.0002V111.337H37.3366ZM37.3366 109.354H37.6729V108.033H37.3366H37.0002V109.354H37.3366ZM37.3366 106.712H37.6729V105.39H37.3366H37.0002V106.712H37.3366ZM37.3366 104.069H37.6729V102.747H37.3366H37.0002V104.069H37.3366ZM37.3366 101.426H37.6729V100.104H37.3366H37.0002V101.426H37.3366ZM37.3366 98.783H37.6729V97.4616H37.3366H37.0002V98.783H37.3366ZM37.3366 96.1401H37.6729V94.8187H37.3366H37.0002V96.1401H37.3366ZM37.3366 93.4973H37.6729V92.1758H37.3366H37.0002V93.4973H37.3366ZM37.3366 90.8544H37.6729V89.5329H37.3366H37.0002V90.8544H37.3366ZM37.3366 88.2115H37.6729V86.8901H37.3366H37.0002V88.2115H37.3366ZM37.3366 85.5686H37.6729V84.2472H37.3366H37.0002V85.5686H37.3366ZM37.3366 82.9258H37.6729V81.6043H37.3366H37.0002V82.9258H37.3366ZM37.3366 80.2829H37.6729V78.9615H37.3366H37.0002V80.2829H37.3366ZM37.3366 77.64H37.6729V76.3186H37.3366H37.0002V77.64H37.3366ZM37.3366 74.9972H37.6729V74.3364H37.3366H37.0002V74.9972H37.3366ZM37.3366 74.3364V74.0001H36.6758V74.3364V74.6728H37.3366V74.3364ZM35.3544 74.3364V74.0001H34.033V74.3364V74.6728H35.3544V74.3364ZM32.7115 74.3364V74.0001H31.3901V74.3364V74.6728H32.7115V74.3364ZM30.0687 74.3364V74.0001H28.7472V74.3364V74.6728H30.0687V74.3364ZM27.4258 74.3364V74.0001H26.1044V74.3364V74.6728H27.4258V74.3364ZM24.7829 74.3364V74.0001H23.4615V74.3364V74.6728H24.7829V74.3364ZM22.1401 74.3364V74.0001H20.8186V74.3364V74.6728H22.1401V74.3364ZM19.4972 74.3364V74.0001H18.1757V74.3364V74.6728H19.4972V74.3364ZM16.8543 74.3364V74.0001H15.5329V74.3364V74.6728H16.8543V74.3364ZM14.2114 74.3364V74.0001H12.89V74.3364V74.6728H14.2114V74.3364ZM11.5686 74.3364V74.0001H10.2471V74.3364V74.6728H11.5686V74.3364ZM8.9257 74.3364V74.0001H7.60426V74.3364V74.6728H8.9257V74.3364ZM6.28282 74.3364V74.0001H4.96139V74.3364V74.6728H6.28282V74.3364ZM3.63995 74.3364V74.0001H2.31852V74.3364V74.6728H3.63995V74.3364ZM0.997085 74.3364V74.0001H0.336365V74.3364V74.6728H0.997085V74.3364Z" fill="black" fill-opacity="0.05"/>
<rect x="37.3386" y="74.3364" width="37.0002" height="37.0002" fill="#F6F3EA" stroke="black" stroke-opacity="0.05" stroke-width="0.672731" stroke-dasharray="1.35 1.35"/>
<path d="M111.341 74.3364H74.3409V111.337L111.341 74.3364Z" fill="#00CD76"/>
<path d="M74.3409 37.3363H111.341V74.3365H74.3409V37.3363Z" fill="#F6F3EA"/>
<path d="M74.3409 37.3363V36.9999H74.0045V37.3363H74.3409ZM111.341 37.3363H111.677V36.9999H111.341V37.3363ZM111.341 74.3365V74.6729H111.677V74.3365H111.341ZM74.3409 74.3365H74.0045V74.6729H74.3409V74.3365ZM74.3409 37.3363H74.0045V37.997H74.3409H74.6772V37.3363H74.3409ZM74.3409 39.3184H74.0045V40.6399H74.3409H74.6772V39.3184H74.3409ZM74.3409 41.9613H74.0045V43.2828H74.3409H74.6772V41.9613H74.3409ZM74.3409 44.6042H74.0045V45.9256H74.3409H74.6772V44.6042H74.3409ZM74.3409 47.2471H74.0045V48.5685H74.3409H74.6772V47.2471H74.3409ZM74.3409 49.8899H74.0045V51.2114H74.3409H74.6772V49.8899H74.3409ZM74.3409 52.5328H74.0045V53.8542H74.3409H74.6772V52.5328H74.3409ZM74.3409 55.1757H74.0045V56.4971H74.3409H74.6772V55.1757H74.3409ZM74.3409 57.8185H74.0045V59.14H74.3409H74.6772V57.8185H74.3409ZM74.3409 60.4614H74.0045V61.7829H74.3409H74.6772V60.4614H74.3409ZM74.3409 63.1043H74.0045V64.4257H74.3409H74.6772V63.1043H74.3409ZM74.3409 65.7472H74.0045V67.0686H74.3409H74.6772V65.7472H74.3409ZM74.3409 68.39H74.0045V69.7115H74.3409H74.6772V68.39H74.3409ZM74.3409 71.0329H74.0045V72.3543H74.3409H74.6772V71.0329H74.3409ZM74.3409 73.6758H74.0045V74.3365H74.3409H74.6772V73.6758H74.3409ZM74.3409 74.3365V74.6729H75.0016V74.3365V74.0001H74.3409V74.3365ZM76.323 74.3365V74.6729H77.6445V74.3365V74.0001H76.323V74.3365ZM78.9659 74.3365V74.6729H80.2873V74.3365V74.0001H78.9659V74.3365ZM81.6088 74.3365V74.6729H82.9302V74.3365V74.0001H81.6088V74.3365ZM84.2516 74.3365V74.6729H85.5731V74.3365V74.0001H84.2516V74.3365ZM86.8945 74.3365V74.6729H88.216V74.3365V74.0001H86.8945V74.3365ZM89.5374 74.3365V74.6729H90.8588V74.3365V74.0001H89.5374V74.3365ZM92.1803 74.3365V74.6729H93.5017V74.3365V74.0001H92.1803V74.3365ZM94.8231 74.3365V74.6729H96.1446V74.3365V74.0001H94.8231V74.3365ZM97.466 74.3365V74.6729H98.7874V74.3365V74.0001H97.466V74.3365ZM100.109 74.3365V74.6729H101.43V74.3365V74.0001H100.109V74.3365ZM102.752 74.3365V74.6729H104.073V74.3365V74.0001H102.752V74.3365ZM105.395 74.3365V74.6729H106.716V74.3365V74.0001H105.395V74.3365ZM108.037 74.3365V74.6729H109.359V74.3365V74.0001H108.037V74.3365ZM110.68 74.3365V74.6729H111.341V74.3365V74.0001H110.68V74.3365ZM111.341 74.3365H111.677V73.6758H111.341H111.005V74.3365H111.341ZM111.341 72.3543H111.677V71.0329H111.341H111.005V72.3543H111.341ZM111.341 69.7115H111.677V68.39H111.341H111.005V69.7115H111.341ZM111.341 67.0686H111.677V65.7472H111.341H111.005V67.0686H111.341ZM111.341 64.4257H111.677V63.1043H111.341H111.005V64.4257H111.341ZM111.341 61.7829H111.677V60.4614H111.341H111.005V61.7829H111.341ZM111.341 59.14H111.677V57.8185H111.341H111.005V59.14H111.341ZM111.341 56.4971H111.677V55.1757H111.341H111.005V56.4971H111.341ZM111.341 53.8542H111.677V52.5328H111.341H111.005V53.8542H111.341ZM111.341 51.2114H111.677V49.8899H111.341H111.005V51.2114H111.341ZM111.341 48.5685H111.677V47.2471H111.341H111.005V48.5685H111.341ZM111.341 45.9256H111.677V44.6042H111.341H111.005V45.9256H111.341ZM111.341 43.2828H111.677V41.9613H111.341H111.005V43.2828H111.341ZM111.341 40.6399H111.677V39.3184H111.341H111.005V40.6399H111.341ZM111.341 37.997H111.677V37.3363H111.341H111.005V37.997H111.341ZM111.341 37.3363V36.9999H110.68V37.3363V37.6727H111.341V37.3363ZM109.359 37.3363V36.9999H108.037V37.3363V37.6727H109.359V37.3363ZM106.716 37.3363V36.9999H105.395V37.3363V37.6727H106.716V37.3363ZM104.073 37.3363V36.9999H102.752V37.3363V37.6727H104.073V37.3363ZM101.43 37.3363V36.9999H100.109V37.3363V37.6727H101.43V37.3363ZM98.7874 37.3363V36.9999H97.466V37.3363V37.6727H98.7874V37.3363ZM96.1446 37.3363V36.9999H94.8231V37.3363V37.6727H96.1446V37.3363ZM93.5017 37.3363V36.9999H92.1803V37.3363V37.6727H93.5017V37.3363ZM90.8588 37.3363V36.9999H89.5374V37.3363V37.6727H90.8588V37.3363ZM88.216 37.3363V36.9999H86.8945V37.3363V37.6727H88.216V37.3363ZM85.5731 37.3363V36.9999H84.2516V37.3363V37.6727H85.5731V37.3363ZM82.9302 37.3363V36.9999H81.6088V37.3363V37.6727H82.9302V37.3363ZM80.2873 37.3363V36.9999H78.9659V37.3363V37.6727H80.2873V37.3363ZM77.6445 37.3363V36.9999H76.323V37.3363V37.6727H77.6445V37.3363ZM75.0016 37.3363V36.9999H74.3409V37.3363V37.6727H75.0016V37.3363Z" fill="black" fill-opacity="0.05"/>
<path d="M37.3386 0.336365H74.3388V37.3366H37.3386V0.336365Z" fill="#F6F3EA"/>
<path d="M37.3386 0.336365V-8.04663e-07H37.0023V0.336365H37.3386ZM37.3386 37.3366H37.0023V37.6729H37.3386V37.3366ZM37.3386 0.336365H37.0023V0.997083H37.3386H37.675V0.336365H37.3386ZM37.3386 2.31852H37.0023V3.63995H37.3386H37.675V2.31852H37.3386ZM37.3386 4.96139H37.0023V6.28283H37.3386H37.675V4.96139H37.3386ZM37.3386 7.60426H37.0023V8.9257H37.3386H37.675V7.60426H37.3386ZM37.3386 10.2471H37.0023V11.5686H37.3386H37.675V10.2471H37.3386ZM37.3386 12.89H37.0023V14.2114H37.3386H37.675V12.89H37.3386ZM37.3386 15.5329H37.0023V16.8543H37.3386H37.675V15.5329H37.3386ZM37.3386 18.1757H37.0023V19.4972H37.3386H37.675V18.1757H37.3386ZM37.3386 20.8186H37.0023V22.1401H37.3386H37.675V20.8186H37.3386ZM37.3386 23.4615H37.0023V24.7829H37.3386H37.675V23.4615H37.3386ZM37.3386 26.1044H37.0023V27.4258H37.3386H37.675V26.1044H37.3386ZM37.3386 28.7472H37.0023V30.0687H37.3386H37.675V28.7472H37.3386ZM37.3386 31.3901H37.0023V32.7115H37.3386H37.675V31.3901H37.3386ZM37.3386 34.033H37.0023V35.3544H37.3386H37.675V34.033H37.3386ZM37.3386 36.6758H37.0023V37.3366H37.3386H37.675V36.6758H37.3386ZM37.3386 37.3366V37.6729H37.9993V37.3366V37.0002H37.3386V37.3366ZM39.3208 37.3366V37.6729H40.6422V37.3366V37.0002H39.3208V37.3366ZM41.9636 37.3366V37.6729H43.2851V37.3366V37.0002H41.9636V37.3366ZM44.6065 37.3366V37.6729H45.928V37.3366V37.0002H44.6065V37.3366ZM47.2494 37.3366V37.6729H48.5708V37.3366V37.0002H47.2494V37.3366ZM49.8923 37.3366V37.6729H51.2137V37.3366V37.0002H49.8923V37.3366ZM52.5351 37.3366V37.6729H53.8566V37.3366V37.0002H52.5351V37.3366ZM55.178 37.3366V37.6729H56.4994V37.3366V37.0002H55.178V37.3366ZM57.8209 37.3366V37.6729H59.1423V37.3366V37.0002H57.8209V37.3366ZM60.4638 37.3366V37.6729H61.7852V37.3366V37.0002H60.4638V37.3366ZM63.1066 37.3366V37.6729H64.4281V37.3366V37.0002H63.1066V37.3366ZM65.7495 37.3366V37.6729H67.0709V37.3366V37.0002H65.7495V37.3366ZM68.3924 37.3366V37.6729H69.7138V37.3366V37.0002H68.3924V37.3366ZM71.0352 37.3366V37.6729H72.3567V37.3366V37.0002H71.0352V37.3366ZM73.6781 37.3366V37.6729H74.3388V37.3366V37.0002H73.6781V37.3366ZM74.3388 0.336365V-8.04663e-07H73.6781V0.336365V0.67273H74.3388V0.336365ZM72.3567 0.336365V-8.04663e-07H71.0352V0.336365V0.67273H72.3567V0.336365ZM69.7138 0.336365V-8.04663e-07H68.3924V0.336365V0.67273H69.7138V0.336365ZM67.0709 0.336365V-8.04663e-07H65.7495V0.336365V0.67273H67.0709V0.336365ZM64.4281 0.336365V-8.04663e-07H63.1066V0.336365V0.67273H64.4281V0.336365ZM61.7852 0.336365V-8.04663e-07H60.4637V0.336365V0.67273H61.7852V0.336365ZM59.1423 0.336365V-8.04663e-07H57.8209V0.336365V0.67273H59.1423V0.336365ZM56.4994 0.336365V-8.04663e-07H55.178V0.336365V0.67273H56.4994V0.336365ZM53.8566 0.336365V-8.04663e-07H52.5351V0.336365V0.67273H53.8566V0.336365ZM51.2137 0.336365V-8.04663e-07H49.8923V0.336365V0.67273H51.2137V0.336365ZM48.5708 0.336365V-8.04663e-07H47.2494V0.336365V0.67273H48.5708V0.336365ZM45.928 0.336365V-8.04663e-07H44.6065V0.336365V0.67273H45.928V0.336365ZM43.2851 0.336365V-8.04663e-07H41.9636V0.336365V0.67273H43.2851V0.336365ZM40.6422 0.336365V-8.04663e-07H39.3208V0.336365V0.67273H40.6422V0.336365ZM37.9993 0.336365V-8.04663e-07H37.3386V0.336365V0.67273H37.9993V0.336365Z" fill="black" fill-opacity="0.05"/>
</svg>
