<svg preserveAspectRatio="none" width="100%" height="100%" overflow="visible" style="display: block;" viewBox="0 0 229 160" fill="none" xmlns="http://www.w3.org/2000/svg">
<g id="Frame 2147256879" opacity="0.3">
<line id="Line 8" x1="0.500006" y1="2.68358e-08" x2="0.5" y2="160" stroke="url(#paint0_linear_0_6)" stroke-dasharray="10 10"/>
<line id="Line 9" x1="38.5" y1="2.68358e-08" x2="38.5" y2="160" stroke="url(#paint1_linear_0_6)" stroke-dasharray="10 10"/>
<line id="Line 10" x1="76.5" y1="2.68358e-08" x2="76.5" y2="160" stroke="url(#paint2_linear_0_6)" stroke-dasharray="10 10"/>
<line id="Line 11" x1="114.5" y1="2.68358e-08" x2="114.5" y2="160" stroke="url(#paint3_linear_0_6)" stroke-dasharray="10 10"/>
<line id="Line 12" x1="152.5" y1="2.68358e-08" x2="152.5" y2="160" stroke="url(#paint4_linear_0_6)" stroke-dasharray="10 10"/>
<line id="Line 13" x1="190.5" y1="2.68358e-08" x2="190.5" y2="160" stroke="url(#paint5_linear_0_6)" stroke-dasharray="10 10"/>
<line id="Line 14" x1="228.5" y1="2.68358e-08" x2="228.5" y2="160" stroke="url(#paint6_linear_0_6)" stroke-dasharray="10 10"/>
</g>
<defs>
<linearGradient id="paint0_linear_0_6" x1="-0.499994" y1="-2.68358e-08" x2="-0.500003" y2="160" gradientUnits="userSpaceOnUse">
<stop stop-color="#232325"/>
<stop offset="1" stop-color="#83838B" stop-opacity="0.4"/>
</linearGradient>
<linearGradient id="paint1_linear_0_6" x1="37.5" y1="-2.68358e-08" x2="37.5" y2="160" gradientUnits="userSpaceOnUse">
<stop stop-color="#232325"/>
<stop offset="1" stop-color="#83838B" stop-opacity="0.4"/>
</linearGradient>
<linearGradient id="paint2_linear_0_6" x1="75.5" y1="-2.68358e-08" x2="75.5" y2="160" gradientUnits="userSpaceOnUse">
<stop stop-color="#232325"/>
<stop offset="1" stop-color="#83838B" stop-opacity="0.4"/>
</linearGradient>
<linearGradient id="paint3_linear_0_6" x1="113.5" y1="-2.68358e-08" x2="113.5" y2="160" gradientUnits="userSpaceOnUse">
<stop stop-color="#232325"/>
<stop offset="1" stop-color="#83838B" stop-opacity="0.4"/>
</linearGradient>
<linearGradient id="paint4_linear_0_6" x1="151.5" y1="-2.68358e-08" x2="151.5" y2="160" gradientUnits="userSpaceOnUse">
<stop stop-color="#232325"/>
<stop offset="1" stop-color="#83838B" stop-opacity="0.4"/>
</linearGradient>
<linearGradient id="paint5_linear_0_6" x1="189.5" y1="-2.68358e-08" x2="189.5" y2="160" gradientUnits="userSpaceOnUse">
<stop stop-color="#232325"/>
<stop offset="1" stop-color="#83838B" stop-opacity="0.4"/>
</linearGradient>
<linearGradient id="paint6_linear_0_6" x1="227.5" y1="-2.68358e-08" x2="227.5" y2="160" gradientUnits="userSpaceOnUse">
<stop stop-color="#232325"/>
<stop offset="1" stop-color="#83838B" stop-opacity="0.4"/>
</linearGradient>
</defs>
</svg>
