<svg preserveAspectRatio="none" width="100%" height="100%" overflow="visible" style="display: block;" viewBox="0 0 24 24" fill="none" xmlns="http://www.w3.org/2000/svg">
<g id="stash:invoice">
<path id="Vector" d="M3.24983 5.00001C3.24983 4.27066 3.53956 3.57119 4.05528 3.05547C4.57101 2.53974 5.27048 2.25001 5.99983 2.25001H15.9998C16.7292 2.25001 17.4286 2.53974 17.9444 3.05547C18.4601 3.57119 18.7498 4.27066 18.7498 5.00001V10.5C18.7498 10.6989 18.6708 10.8897 18.5302 11.0303C18.3895 11.171 18.1987 11.25 17.9998 11.25C17.8009 11.25 17.6102 11.171 17.4695 11.0303C17.3288 10.8897 17.2498 10.6989 17.2498 10.5V5.00001C17.2498 4.31001 16.6898 3.75001 15.9998 3.75001H5.99983C5.30983 3.75001 4.74983 4.31001 4.74983 5.00001V19.382C4.74974 19.4247 4.76059 19.4667 4.78132 19.504C4.80205 19.5413 4.83199 19.5726 4.86828 19.5951C4.90457 19.6175 4.946 19.6303 4.98863 19.6322C5.03127 19.6342 5.07368 19.6251 5.11183 19.606L6.11183 19.106C6.40242 18.9608 6.7277 18.8993 7.05126 18.9284C7.37481 18.9575 7.68387 19.0762 7.94383 19.271L8.84983 19.95C8.8931 19.9825 8.94574 20 8.99983 20C9.05392 20 9.10655 19.9825 9.14983 19.95L10.0118 19.303C10.2901 19.0945 10.6243 18.9736 10.9716 18.9558C11.3189 18.938 11.6636 19.024 11.9618 19.203L12.6358 19.607C12.7213 19.6572 12.796 19.7238 12.8556 19.803C12.9152 19.8822 12.9584 19.9725 12.9829 20.0685C13.0074 20.1645 13.0126 20.2645 12.9983 20.3625C12.9839 20.4606 12.9502 20.5549 12.8992 20.6398C12.8482 20.7248 12.7809 20.7988 12.7011 20.8576C12.6213 20.9164 12.5306 20.9588 12.4343 20.9824C12.338 21.0059 12.2381 21.0101 12.1401 20.9948C12.0422 20.9795 11.9483 20.9449 11.8638 20.893L11.1908 20.489C11.1482 20.4633 11.0989 20.4509 11.0492 20.4534C10.9995 20.4559 10.9517 20.4732 10.9118 20.503L10.0498 21.15C9.74691 21.3772 9.37848 21.5 8.99983 21.5C8.62118 21.5 8.25275 21.3772 7.94983 21.15L7.04383 20.47C7.00671 20.4424 6.96266 20.4256 6.91658 20.4216C6.8705 20.4175 6.8242 20.4263 6.78283 20.447L5.78283 20.947C5.51603 21.0805 5.21953 21.1435 4.9215 21.1302C4.62347 21.1168 4.3338 21.0275 4.08 20.8707C3.82621 20.7139 3.61671 20.4948 3.47141 20.2343C3.32612 19.9737 3.24984 19.6803 3.24983 19.382V5.00001Z" fill="var(--fill-0, #00DD7F)"/>
<path id="Vector_2" d="M17.4998 14.7503C16.7705 14.7503 16.071 15.0401 15.5553 15.5558C15.0396 16.0715 14.7498 16.771 14.7498 17.5003C14.7498 18.2297 15.0396 18.9292 15.5553 19.4449C16.071 19.9606 16.7705 20.2503 17.4998 20.2503C18.2292 20.2503 18.9286 19.9606 19.4444 19.4449C19.9601 18.9292 20.2498 18.2297 20.2498 17.5003C20.2498 16.771 19.9601 16.0715 19.4444 15.5558C18.9286 15.0401 18.2292 14.7503 17.4998 14.7503ZM13.2498 17.5003C13.2498 16.9422 13.3598 16.3896 13.5733 15.8739C13.7869 15.3583 14.1 14.8898 14.4946 14.4951C14.8893 14.1005 15.3578 13.7874 15.8734 13.5739C16.3891 13.3603 16.9417 13.2503 17.4998 13.2503C18.0579 13.2503 18.6106 13.3603 19.1262 13.5739C19.6419 13.7874 20.1104 14.1005 20.505 14.4951C20.8997 14.8898 21.2127 15.3583 21.4263 15.8739C21.6399 16.3896 21.7498 16.9422 21.7498 17.5003C21.7498 18.6275 21.3021 19.7085 20.505 20.5055C19.708 21.3026 18.627 21.7503 17.4998 21.7503C16.3727 21.7503 15.2917 21.3026 14.4946 20.5055C13.6976 19.7085 13.2498 18.6275 13.2498 17.5003ZM19.3428 16.0953C19.4833 16.236 19.5622 16.4266 19.5622 16.6253C19.5622 16.8241 19.4833 17.0147 19.3428 17.1553L17.0628 19.4353L15.6568 18.0303C15.5831 17.9617 15.524 17.8789 15.483 17.7869C15.4421 17.6949 15.42 17.5956 15.4182 17.4949C15.4165 17.3942 15.435 17.2941 15.4727 17.2007C15.5104 17.1074 15.5666 17.0225 15.6378 16.9513C15.709 16.8801 15.7938 16.8239 15.8872 16.7862C15.9806 16.7485 16.0806 16.73 16.1814 16.7318C16.2821 16.7335 16.3814 16.7556 16.4734 16.7966C16.5654 16.8376 16.6482 16.8967 16.7168 16.9703L17.0628 17.3143L18.2828 16.0943C18.4235 15.9539 18.6141 15.875 18.8128 15.875C19.0116 15.875 19.2022 15.9549 19.3428 16.0953ZM6.24983 7.00034C6.24983 6.80143 6.32885 6.61066 6.4695 6.47001C6.61015 6.32936 6.80092 6.25034 6.99983 6.25034H13.4998C13.6987 6.25034 13.8895 6.32936 14.0302 6.47001C14.1708 6.61066 14.2498 6.80143 14.2498 7.00034C14.2498 7.19926 14.1708 7.39002 14.0302 7.53067C13.8895 7.67133 13.6987 7.75034 13.4998 7.75034H6.99983C6.80092 7.75034 6.61015 7.67133 6.4695 7.53067C6.32885 7.39002 6.24983 7.19926 6.24983 7.00034ZM6.24983 10.0003C6.24983 9.80143 6.32885 9.61067 6.4695 9.47001C6.61015 9.32936 6.80092 9.25034 6.99983 9.25034H14.9998C15.1987 9.25034 15.3895 9.32936 15.5302 9.47001C15.6708 9.61067 15.7498 9.80143 15.7498 10.0003C15.7498 10.1993 15.6708 10.39 15.5302 10.5307C15.3895 10.6713 15.1987 10.7503 14.9998 10.7503H6.99983C6.80092 10.7503 6.61015 10.6713 6.4695 10.5307C6.32885 10.39 6.24983 10.1993 6.24983 10.0003ZM6.24983 13.0003C6.24983 12.8014 6.32885 12.6107 6.4695 12.47C6.61015 12.3294 6.80092 12.2503 6.99983 12.2503H10.4998C10.6987 12.2503 10.8895 12.3294 11.0302 12.47C11.1708 12.6107 11.2498 12.8014 11.2498 13.0003C11.2498 13.1993 11.1708 13.39 11.0302 13.5307C10.8895 13.6713 10.6987 13.7503 10.4998 13.7503H6.99983C6.80092 13.7503 6.61015 13.6713 6.4695 13.5307C6.32885 13.39 6.24983 13.1993 6.24983 13.0003ZM6.24983 16.0003C6.24983 15.8014 6.32885 15.6107 6.4695 15.47C6.61015 15.3294 6.80092 15.2503 6.99983 15.2503H10.4998C10.6987 15.2503 10.8895 15.3294 11.0302 15.47C11.1708 15.6107 11.2498 15.8014 11.2498 16.0003C11.2498 16.1993 11.1708 16.39 11.0302 16.5307C10.8895 16.6713 10.6987 16.7503 10.4998 16.7503H6.99983C6.80092 16.7503 6.61015 16.6713 6.4695 16.5307C6.32885 16.39 6.24983 16.1993 6.24983 16.0003Z" fill="var(--fill-0, #00DD7F)"/>
</g>
</svg>
