<svg preserveAspectRatio="none" width="100%" height="100%" overflow="visible" style="display: block;" viewBox="0 0 22.3 17.6334" fill="none" xmlns="http://www.w3.org/2000/svg">
<g id="Group">
<path id="Vector" d="M21.65 4.15C21.65 2.21683 17.9937 0.65 13.4833 0.65C8.973 0.65 5.31667 2.21683 5.31667 4.15M21.65 4.15V8.81667C21.65 10.0067 20.2663 11.0567 18.15 11.689C16.827 12.0857 15.2182 12.3167 13.4833 12.3167C11.7485 12.3167 10.1397 12.0845 8.81667 11.689C6.7015 11.0567 5.31667 10.0067 5.31667 8.81667V4.15M21.65 4.15C21.65 5.34 20.2663 6.39 18.15 7.02233C16.827 7.419 15.2182 7.65 13.4833 7.65C11.7485 7.65 10.1397 7.41783 8.81667 7.02233C6.7015 6.39 5.31667 5.34 5.31667 4.15" stroke="var(--stroke-0, #00DD7F)" stroke-width="1.3" stroke-linecap="round" stroke-linejoin="round"/>
<path id="Vector_2" d="M0.65 8.81674V13.4834C0.65 14.6734 2.03483 15.7234 4.15 16.3557C5.473 16.7524 7.08183 16.9834 8.81667 16.9834C10.5515 16.9834 12.1603 16.7512 13.4833 16.3557C15.5985 15.7234 16.9833 14.6734 16.9833 13.4834V12.3167M0.65 8.81674C0.65 7.42024 2.5575 6.21507 5.31667 5.65391M0.65 8.81674C0.65 10.0067 2.03483 11.0567 4.15 11.6891C5.473 12.0857 7.08183 12.3167 8.81667 12.3167C9.6275 12.3167 10.4103 12.2666 11.15 12.1721" stroke="var(--stroke-0, #00DD7F)" stroke-width="1.3" stroke-linecap="round" stroke-linejoin="round"/>
</g>
</svg>
